<svg width="1440" height="412" viewBox="0 0 1440 412" fill="none" xmlns="http://www.w3.org/2000/svg">
<path fill-rule="evenodd" clip-rule="evenodd" d="M1448 388L1387.25 394C1326.5 400 1205 412 1083.5 412C962 412 840.5 400 719 382C597.5 364 476 340 354.5 340C233 340 111.5 364 50.7502 376L-9.99975 388L-9.99974 280L50.7503 280C111.5 280 233 280 354.5 280C476 280 597.5 280 719 280C840.5 280 962 280 1083.5 280C1205 280 1326.5 280 1387.25 280L1448 280L1448 388Z" fill="#2A4D6B" fill-opacity="0.4"/>
<path fill-rule="evenodd" clip-rule="evenodd" d="M1458 348L1397.25 354C1336.5 360 1215 372 1093.5 372C972 372 850.5 360 729 342C607.5 324 486 300 364.5 300C243 300 121.5 324 60.7502 336L0.000246239 348L0.000276662 -5.3921e-06L60.7503 -8.11621e-08C121.5 5.22977e-06 243 1.58516e-05 364.5 2.64735e-05C486 3.70954e-05 607.5 4.77172e-05 729 5.83391e-05C850.5 6.8961e-05 972 7.95828e-05 1093.5 9.02047e-05C1215 0.000100827 1336.5 0.000111448 1397.25 0.000116759L1458 0.00012207L1458 348Z" fill="#2A4D6B"/>
</svg>
