<svg width="361" height="120" viewBox="0 0 361 120" fill="none" xmlns="http://www.w3.org/2000/svg">
<path d="M243.429 37.9139C243.968 36.5621 245.095 35.6517 246.387 35.4294L246.689 36.5864C245.666 36.7874 244.903 37.3628 244.516 38.3356C243.915 39.8443 244.617 41.4564 246.182 42.0806C247.745 42.7033 249.365 42.0167 249.966 40.508C250.355 39.5368 250.199 38.5944 249.595 37.7449L250.61 37.1132C251.4 38.1545 251.595 39.5779 251.047 40.9525C250.243 43.0656 247.786 44.1952 245.693 43.3091C243.562 42.513 242.559 40.0011 243.429 37.9139Z" fill="#FF9582"/>
<path d="M249.513 26.5951C250.752 24.7181 253.402 24.1411 255.252 25.4625C257.155 26.7063 257.581 29.3856 256.284 31.2201C255.033 33.1169 252.399 33.665 250.551 32.342C248.654 31.0907 248.208 28.4418 249.513 26.5951ZM250.482 27.2422C249.552 28.6031 249.907 30.3006 251.288 31.2444C252.687 32.2005 254.398 31.9127 255.328 30.5533C256.243 29.2121 255.903 27.4949 254.503 26.5388C253.133 25.6011 251.399 25.9025 250.482 27.2422Z" fill="#FF9582"/>
<path d="M261.32 13.5852L266.787 19.5178L265.851 20.381L262.479 16.7213L262.829 20.4541L262.509 20.7464L258.801 20.0933L262.182 23.7621L261.246 24.6253L255.779 18.6927L256.105 18.3913L261.561 19.396L261.003 13.8775L261.32 13.5852Z" fill="#FF9582"/>
<path d="M266.431 10.044L267.531 9.4016L269.955 13.5546C270.635 14.7177 271.727 14.943 272.735 14.3553C273.73 13.7738 274.062 12.7188 273.382 11.5542L270.958 7.40122L272.059 6.75879L274.44 10.8387C275.495 12.6457 274.93 14.4238 273.321 15.3631C271.681 16.3192 269.867 15.931 268.813 14.1239L266.431 10.044Z" fill="#FF9582"/>
<path d="M283.912 2.15527L286.447 9.81728L286.034 9.95277L279.715 6.24127L281.403 11.3457L280.193 11.7461L277.658 4.0841L278.081 3.94556L284.384 7.63727L282.703 2.55717L283.912 2.15527Z" fill="#FF9582"/>
<path d="M289.767 0.96188L291.026 0.762451L292.26 8.59953L291.001 8.79896L289.767 0.96188Z" fill="#FF9582"/>
<path d="M300.641 0.00112392C302.095 0.0117804 303.351 0.730332 304.028 1.85383L303.06 2.55411C302.503 1.67267 301.688 1.17334 300.642 1.16725C299.02 1.15507 297.773 2.39579 297.759 4.07799C297.747 5.76171 298.975 7.0207 300.598 7.03288C301.644 7.04049 302.466 6.55334 303.037 5.68103L303.993 6.39806C303.313 7.50937 302.057 8.20966 300.58 8.199C298.319 8.21727 296.374 6.34021 296.439 4.06886C296.406 1.79598 298.38 -0.0521585 300.641 0.00112392Z" fill="#FF9582"/>
<path d="M312.911 8.31786L309.417 7.5719L308.588 8.74868L307.259 8.46552L312.368 1.2998L312.792 1.38962L314.531 10.0168L313.19 9.72908L312.911 8.31786ZM312.086 3.66402L310.095 6.5976L312.695 7.15173L312.086 3.66402Z" fill="#FF9582"/>
<path d="M324.647 5.26221C325.981 5.84375 326.853 6.99922 327.034 8.29931L325.868 8.5642C325.702 7.53357 325.149 6.75412 324.192 6.33547C322.704 5.68543 321.068 6.33547 320.394 7.87762C319.719 9.42128 320.354 11.0624 321.841 11.7124C322.8 12.1311 323.746 12.0062 324.615 11.4293L325.212 12.4645C324.146 13.2196 322.717 13.3688 321.362 12.7766C319.276 11.9042 318.226 9.41063 319.18 7.34784C320.048 5.24699 322.59 4.32292 324.647 5.26221ZM319.488 13.2561C319.742 13.3931 319.946 13.4966 320.101 13.5636C320.575 13.7707 320.986 13.6732 321.178 13.2333C321.28 13.0019 321.296 12.7217 321.231 12.3899L321.805 12.3655C322.156 12.7948 322.258 13.3383 322.033 13.8559C321.706 14.6064 320.849 14.9139 319.879 14.4907C319.637 14.3857 319.389 14.2365 319.141 14.0492L319.488 13.2561Z" fill="#FF9582"/>
<path d="M332.63 17.7409L329.716 15.6736L328.489 16.4256L327.381 15.6386L334.908 11.0821L335.262 11.3333L333.445 19.9422L332.326 19.1476L332.63 17.7409ZM333.713 13.1388L330.723 15.0448L332.89 16.5839L333.713 13.1388ZM335.573 10.0195C335.46 9.76227 335.384 9.62069 335.267 9.53696C335.081 9.40451 334.888 9.48977 334.742 9.69528L334.65 9.82316L333.827 9.23706C333.901 9.11374 333.961 9.00718 334.009 8.93867C334.483 8.27036 335.236 8.08311 335.815 8.49415C336.049 8.6616 336.237 8.89605 336.368 9.21118L336.55 9.63743C336.616 9.77292 336.73 10.0302 336.858 10.12C337.043 10.254 337.229 10.1794 337.375 9.97235L337.48 9.82468L338.306 10.4093C338.231 10.5341 338.172 10.6391 338.123 10.7076C337.643 11.3836 336.887 11.5556 336.328 11.1598C336.103 10.9984 335.912 10.7457 335.762 10.4184L335.573 10.0195Z" fill="#FF9582"/>
<path d="M344.625 19.6075C346.176 21.2365 346.141 23.9493 344.438 25.4549C342.8 27.0305 340.093 26.8433 338.596 25.1657C337.028 23.5185 337.089 20.833 338.791 19.3274C340.437 17.7609 343.119 17.9208 344.625 19.6075ZM343.775 20.4068C342.66 19.195 340.926 19.16 339.696 20.2911C338.449 21.4405 338.344 23.1714 339.461 24.3832C340.56 25.5767 342.312 25.6315 343.559 24.4821C344.779 23.3571 344.876 21.6003 343.775 20.4068Z" fill="#FF9582"/>
<path d="M354.199 33.5781L356.361 38.3294L355.321 38.8013L353.687 35.2101L351.838 36.052L353.068 38.7557L352.06 39.2139L350.83 36.5087L348.542 37.5499L350.236 41.2721L349.195 41.7456L346.974 36.8618L354.199 33.5781Z" fill="#FF9582"/>
<path d="M360.424 54.3232C360.59 55.7679 360.03 57.103 358.997 57.9114L358.183 57.0376C358.991 56.3769 359.386 55.5076 359.268 54.4709C359.083 52.8572 357.699 51.7702 356.027 51.9636C354.356 52.1554 353.254 53.5285 353.439 55.1392C353.56 56.1774 354.141 56.934 355.077 57.3953L354.484 58.432C353.296 57.8916 352.448 56.7285 352.279 55.261C351.985 53.0201 353.613 50.8614 355.875 50.6498C358.127 50.3407 360.202 52.0747 360.424 54.3232Z" fill="#FF9582"/>
<path d="M360.456 67.1705C360.261 69.4129 358.201 71.1834 355.944 70.9003C353.677 70.713 352.025 68.5574 352.294 66.3241C352.494 64.0588 354.549 62.3233 356.805 62.6065C359.072 62.8059 360.727 64.925 360.456 67.1705ZM359.294 67.0624C359.465 65.4229 358.344 64.0969 356.68 63.9249C354.994 63.7498 353.625 64.817 353.454 66.4565C353.286 68.0733 354.404 69.4236 356.091 69.5987C357.743 69.7692 359.127 68.6776 359.294 67.0624Z" fill="#FF9582"/>
<path d="M356.516 83.1933L348.852 80.654L348.989 80.2445L355.741 77.3855L350.637 75.6942L351.037 74.4839L358.699 77.0216L358.56 77.4449L351.836 80.2993L356.918 81.983L356.516 83.1933Z" fill="#FF9582"/>
<path d="M352.011 89.8855L353.331 87.5639L354.325 88.1287L351.049 93.8893L350.057 93.3245L351.383 90.9937L345.476 87.6339L346.108 86.5256L352.011 89.8855Z" fill="#FF9582"/>
<path d="M347.969 98.1671L344.608 102.163L343.734 101.428L346.275 98.4077L344.718 97.1L342.806 99.3744L341.958 98.6619L343.87 96.3875L341.944 94.7692L339.312 97.9007L338.438 97.1654L341.891 93.0581L347.969 98.1671Z" fill="#FF9582"/>
<path d="M340.563 106.181L339.571 106.982L336.55 103.237C335.705 102.188 334.589 102.128 333.682 102.861C332.784 103.585 332.615 104.68 333.46 105.727L336.48 109.472L335.488 110.273L332.521 106.592C331.207 104.963 331.497 103.121 332.95 101.95C334.428 100.758 336.281 100.871 337.595 102.5L340.563 106.181ZM339.557 110.855L338.359 111.821L338.216 111.643L338.162 109.105L338.892 108.516L339.557 110.855Z" fill="#FF9582"/>
<path d="M330.334 113.611L328.118 114.745C325.804 115.931 323.537 115.28 322.468 113.19C321.416 111.133 322.194 108.855 324.498 107.676L326.714 106.542L330.334 113.611ZM325.031 108.69C323.393 109.528 322.879 111.115 323.636 112.594C324.403 114.092 325.953 114.557 327.603 113.713L328.675 113.165L326.102 108.141L325.031 108.69Z" fill="#FF9582"/>
<path d="M315.31 119.851C313.146 120.457 310.765 119.154 310.235 116.944C309.612 114.759 311.046 112.454 313.231 111.92C315.42 111.308 317.764 112.619 318.296 114.831C318.906 117.02 317.507 119.314 315.31 119.851ZM315.004 118.726C316.598 118.309 317.443 116.795 317.018 115.178C316.589 113.538 315.109 112.634 313.516 113.051C311.946 113.464 311.077 114.983 311.508 116.623C311.928 118.229 313.433 119.139 315.004 118.726Z" fill="#FF9582"/>
<path d="M12.482 67.8586V75.7566H17.2607V76.7324H12.482V96.9661C12.482 97.5841 12.5962 98.0317 12.823 98.3072C13.0499 98.5828 13.4244 98.7213 13.945 98.7213C14.3028 98.7213 14.726 98.6163 15.2131 98.4047C15.7003 98.1946 16.1555 97.8292 16.5787 97.3071L17.3094 97.8932C16.6274 99.0639 15.7246 99.9971 14.6042 100.696C13.4822 101.396 12.0771 101.745 10.3873 101.745C9.31401 101.745 8.34731 101.606 7.48566 101.329C6.62401 101.054 5.91763 100.639 5.36502 100.085C4.64951 99.3714 4.19433 98.4854 3.99947 97.4288C3.80461 96.3723 3.70718 94.9992 3.70718 93.3078V76.734H0.000244141V75.7581H3.70566V70.0052C5.42744 70.0052 6.99698 69.8347 8.40973 69.4936C9.824 69.1511 11.1804 68.6076 12.482 67.8586Z" fill="#EDD6B9"/>
<path d="M30.3652 62.9353V78.7328C31.1446 77.4327 32.1935 76.4964 33.5104 75.9286C34.8272 75.3608 36.3633 75.0746 38.117 75.0746C39.612 75.0746 40.7903 75.2618 41.6519 75.6363C42.5136 76.0108 43.1712 76.4736 43.6264 77.0262C44.1136 77.6108 44.4713 78.3902 44.6997 79.3661C44.9265 80.3419 45.0407 81.6587 45.0407 83.3166V96.5306C45.0407 97.8946 45.2432 98.8218 45.6496 99.3104C46.0561 99.7961 46.7625 100.041 47.7703 100.041V101.066C47.1202 101.034 46.1368 100.993 44.82 100.942C43.5031 100.894 42.2122 100.869 40.944 100.869C39.5785 100.869 38.2449 100.894 36.9463 100.942C35.6462 100.993 34.6704 101.034 34.0204 101.066V100.038C34.8653 100.038 35.4499 99.7945 35.7756 99.3074C36.0999 98.8187 36.2628 97.8931 36.2628 96.5276V80.6799C36.2628 79.9978 36.1806 79.4285 36.0192 78.9733C35.8563 78.5196 35.6051 78.1786 35.2641 77.9503C34.9231 77.7219 34.4603 77.6077 33.8742 77.6077C32.9639 77.6077 32.1509 77.9335 31.4354 78.5836C30.7199 79.2336 30.3622 80.0785 30.3622 81.1183V96.526C30.3622 97.8901 30.5327 98.8172 30.8737 99.3059C31.2147 99.7915 31.7916 100.037 32.6046 100.037V101.061C31.9865 101.029 31.0761 100.988 29.875 100.938C28.6723 100.889 27.4377 100.865 26.1696 100.865C24.804 100.865 23.4217 100.889 22.0257 100.938C20.6282 100.988 19.5717 101.029 18.8562 101.061V100.038C19.864 100.038 20.5704 99.7945 20.9768 99.3074C21.3833 98.8187 21.5873 97.8931 21.5873 96.5276V68.7857C21.5873 67.3227 21.3924 66.2418 21.0027 65.5431C20.613 64.8443 19.8975 64.4942 18.8577 64.4942V63.4712C19.8975 63.5671 20.9053 63.6173 21.8811 63.6173C23.507 63.6173 25.0263 63.561 26.4406 63.4468C27.8548 63.3326 29.1625 63.1621 30.3652 62.9353Z" fill="#EDD6B9"/>
<path d="M55.5586 101.404C53.3481 101.404 51.7466 100.812 50.7555 99.6242C49.763 98.4399 49.2682 97.0652 49.2682 95.5047C49.2682 94.1072 49.5772 92.97 50.1953 92.0916C50.8134 91.2148 51.6172 90.5008 52.6082 89.9466C53.5993 89.394 54.6482 88.9312 55.7534 88.5567C56.8586 88.1838 57.906 87.8169 58.8986 87.4591C59.8897 87.1029 60.695 86.6873 61.3115 86.2154C61.9281 85.7449 62.2386 85.136 62.2386 84.387V80.0483C62.2386 79.5276 62.1488 78.9583 61.9707 78.3417C61.7911 77.7237 61.4592 77.1878 60.9705 76.7326C60.4834 76.2759 59.7511 76.0491 58.7768 76.0491C58.2562 76.0491 57.7599 76.1237 57.2895 76.2698C56.8175 76.416 56.4035 76.6184 56.0457 76.8788C57.1829 77.3004 58.0126 77.8942 58.5317 78.6584C59.0508 79.4211 59.3127 80.2584 59.3127 81.1687C59.3127 82.4688 58.8575 83.4934 57.9471 84.2409C57.0368 84.9899 55.9635 85.3628 54.7289 85.3628C53.4288 85.3628 52.421 84.9564 51.7055 84.1419C50.99 83.332 50.6322 82.3227 50.6322 81.12C50.6322 80.1122 50.8834 79.2582 51.3873 78.5594C51.8912 77.8607 52.6463 77.2182 53.6541 76.6337C54.6299 76.081 55.7991 75.6822 57.1646 75.4386C58.5302 75.1965 59.9597 75.0732 61.4546 75.0732C63.047 75.0732 64.5267 75.2285 65.8923 75.536C67.2578 75.8466 68.427 76.5027 69.4028 77.5105C70.0849 78.226 70.5233 79.1212 70.7197 80.1929C70.9145 81.2662 71.012 82.6469 71.012 84.3368V97.4031C71.012 98.2161 71.0683 98.7672 71.1825 99.0625C71.2966 99.3548 71.4991 99.5009 71.7929 99.5009C72.0533 99.5009 72.3045 99.4202 72.548 99.2574C72.7916 99.0945 73.0276 98.9331 73.2559 98.7687L73.7431 99.5984C73.0276 100.216 72.1416 100.672 71.085 100.962C70.0285 101.255 68.9157 101.401 67.745 101.401C65.632 101.401 64.2253 101.028 63.5281 100.28C62.8293 99.5314 62.4472 98.6712 62.3817 97.6954C61.7317 98.7687 60.8533 99.6547 59.7496 100.353C58.6459 101.054 57.2484 101.404 55.5586 101.404ZM60.4347 97.5036C60.7924 97.5036 61.1091 97.4473 61.3846 97.3331C61.6601 97.2189 61.9448 96.9997 62.2386 96.6754V86.3874C61.9129 86.9735 61.5079 87.485 61.0192 87.9234C60.5321 88.3634 60.0525 88.8338 59.5806 89.3377C59.1087 89.8416 58.719 90.4582 58.4099 91.1904C58.1009 91.9211 57.9471 92.8559 57.9471 93.9946C57.9471 95.2931 58.1816 96.2035 58.6535 96.7242C59.1254 97.2433 59.7191 97.5036 60.4347 97.5036Z" fill="#EDD6B9"/>
<path d="M87.601 75.2207V96.5291C87.601 97.8931 87.8035 98.8202 88.2115 99.3089C88.6179 99.7945 89.3243 100.04 90.3321 100.04V101.064C89.6821 101.032 88.7062 100.991 87.4062 100.941C86.1061 100.892 84.774 100.868 83.4084 100.868C82.0429 100.868 80.6606 100.892 79.2646 100.941C77.8671 100.991 76.8106 101.032 76.0951 101.064V100.038C77.1029 100.038 77.8092 99.7945 78.2157 99.3074C78.6222 98.8187 78.8246 97.8931 78.8246 96.5276V81.0711C78.8246 79.6081 78.6298 78.5288 78.2401 77.8285C77.8503 77.1297 77.1348 76.7811 76.0951 76.7811V75.7566C77.1348 75.854 78.1426 75.9027 79.1185 75.9027C80.7428 75.9027 82.2636 75.8479 83.6779 75.7337C85.0907 75.6195 86.3984 75.449 87.601 75.2207ZM82.9198 62.9353C84.6096 62.9353 85.9188 63.2839 86.8444 63.9827C87.77 64.683 88.2343 65.7303 88.2343 67.1279C88.2343 68.5269 87.7715 69.5743 86.8444 70.273C85.9173 70.9733 84.6096 71.3219 82.9198 71.3219C81.23 71.3219 79.9207 70.9733 78.9951 70.273C78.068 69.5743 77.6052 68.5269 77.6052 67.1279C77.6052 65.7303 78.068 64.683 78.9951 63.9827C79.9223 63.2839 81.23 62.9353 82.9198 62.9353Z" fill="#EDD6B9"/>
<path d="M102.179 75.0745C103.609 75.0745 104.869 75.2297 105.958 75.5373C107.046 75.8478 107.835 76.131 108.322 76.3913C109.459 77.0733 110.158 76.6516 110.418 75.1232H111.394C111.329 76.067 111.28 77.2134 111.248 78.5622C111.216 79.911 111.199 81.6906 111.199 83.9011H110.223C110.094 82.6984 109.809 81.5125 109.371 80.3418C108.932 79.1711 108.298 78.1968 107.469 77.4158C106.641 76.6349 105.559 76.2452 104.227 76.2452C103.414 76.2452 102.732 76.4887 102.179 76.9759C101.627 77.4646 101.351 78.1298 101.351 78.9747C101.351 79.9506 101.643 80.8198 102.229 81.5841C102.814 82.3483 103.561 83.079 104.472 83.7778C105.381 84.478 106.291 85.2149 107.201 85.9958C108.696 87.2 109.948 88.4027 110.956 89.6038C111.963 90.808 112.467 92.3517 112.467 94.2363C112.467 95.6993 112.02 96.9994 111.126 98.1381C110.232 99.2768 109.045 100.16 107.567 100.795C106.087 101.429 104.438 101.746 102.618 101.746C101.479 101.746 100.488 101.623 99.643 101.381C98.7965 101.137 98.1145 100.851 97.5954 100.527C97.0747 100.266 96.6287 100.064 96.2542 99.9178C95.8797 99.7716 95.5143 99.697 95.1566 99.697C94.8308 99.697 94.5537 99.8675 94.3284 100.21C94.1001 100.551 93.9219 100.95 93.7925 101.404H92.8167C92.8822 100.365 92.9309 99.0957 92.9629 97.6023C92.9948 96.1073 93.0116 94.1252 93.0116 91.6529H93.9859C94.1807 93.3762 94.5629 94.9046 95.1322 96.2352C95.7001 97.5703 96.4323 98.6177 97.3259 99.3819C98.2196 100.145 99.2517 100.528 100.422 100.528C101.17 100.528 101.828 100.309 102.397 99.869C102.965 99.4306 103.249 98.7577 103.249 97.8474C103.249 96.4163 102.819 95.2137 101.958 94.2379C101.097 93.2635 100.016 92.1903 98.7158 91.0196C97.7415 90.1108 96.822 89.2232 95.9604 88.3631C95.0987 87.5014 94.3924 86.5576 93.8397 85.5346C93.2871 84.5115 93.0116 83.3667 93.0116 82.0971C93.0116 80.6341 93.4424 79.3842 94.3041 78.343C95.1657 77.3032 96.2953 76.4979 97.6928 75.9285C99.0903 75.3591 100.585 75.0745 102.179 75.0745Z" fill="#EDD6B9"/>
<path d="M127.103 75.0745C129.964 75.0745 132.214 75.9118 133.856 77.5863C135.497 79.2594 136.318 82.0636 136.318 85.9958H121.058L120.96 85.0687H129.201C129.233 83.4779 129.167 82.0057 129.006 80.6569C128.843 79.3081 128.583 78.2273 128.227 77.4143C127.869 76.6014 127.38 76.1964 126.764 76.1964C125.885 76.1964 125.17 76.8861 124.619 78.2684C124.066 79.6491 123.708 82.0149 123.545 85.3625L123.74 85.7507C123.707 86.0765 123.692 86.4023 123.692 86.7266C123.692 87.0508 123.692 87.3933 123.692 87.7511C123.692 90.0255 123.976 91.7975 124.546 93.0656C125.113 94.3322 125.829 95.2106 126.691 95.6978C127.552 96.1865 128.422 96.43 129.3 96.43C129.95 96.43 130.827 96.2595 131.932 95.9185C133.037 95.576 134.126 94.6595 135.199 93.1631L136.027 93.4554C135.637 94.7555 135.01 96.0494 134.15 97.3328C133.288 98.6177 132.176 99.6742 130.81 100.502C129.445 101.33 127.787 101.746 125.837 101.746C123.756 101.746 121.863 101.324 120.157 100.478C118.45 99.6331 117.092 98.2355 116.086 96.2854C115.078 94.3353 114.574 91.7199 114.574 88.4362C114.574 85.3153 115.127 82.773 116.232 80.8061C117.337 78.8392 118.841 77.393 120.743 76.4659C122.643 75.5373 124.762 75.0745 127.103 75.0745Z" fill="#EDD6B9"/>
<path d="M161.525 75.7566V76.7811C160.875 76.7811 160.427 76.9273 160.184 77.2196C159.94 77.5119 159.98 77.9199 160.306 78.4375L173.031 97.6008C173.323 98.0225 173.689 98.5112 174.129 99.0638C174.569 99.6164 175.047 99.9407 175.567 100.038V101.063C174.949 101.031 174.039 100.99 172.838 100.939C171.635 100.891 170.416 100.866 169.181 100.866C167.881 100.866 166.596 100.891 165.329 100.939C164.061 100.99 163.102 101.031 162.452 101.063V100.038C163.102 100.038 163.55 99.892 163.793 99.5997C164.037 99.3074 163.996 98.9009 163.672 98.3818L150.946 79.2184C150.491 78.5044 150.077 77.9427 149.702 77.5362C149.328 77.1298 148.899 76.8786 148.411 76.7811V75.7566C149.125 75.7901 150.182 75.8297 151.581 75.8799C152.979 75.9286 154.376 75.953 155.774 75.953C156.911 75.953 158.016 75.9286 159.089 75.8799C160.16 75.8297 160.972 75.7901 161.525 75.7566ZM158.794 89.9449L158.989 91.0182L158.453 91.7002C157.38 93.0673 156.778 94.375 156.649 95.6248C156.518 96.8777 156.778 97.9084 157.428 98.7213C158.078 99.5342 158.972 99.9894 160.111 100.085V101.061C159.461 101.029 158.616 101.005 157.576 100.988C156.535 100.971 155.519 100.956 154.528 100.938C153.536 100.921 152.749 100.915 152.164 100.915C150.864 100.915 149.776 100.964 148.897 101.061V100.085C149.742 99.6652 150.514 99.1354 151.213 98.5021C151.911 97.8673 152.666 97.065 153.479 96.0876L158.794 89.9449ZM173.861 75.7566V76.7324C173.145 77.0567 172.405 77.5606 171.643 78.2426C170.878 78.9246 170.09 79.7528 169.278 80.7301L164.013 86.8256L163.818 85.7508L165.378 83.8494C166.841 82.0622 167.426 80.4607 167.133 79.0479C166.841 77.6337 165.833 76.8618 164.11 76.7324V75.7566C165.118 75.7901 166.238 75.8221 167.474 75.854C168.709 75.886 169.749 75.9027 170.595 75.9027C171.894 75.9027 172.984 75.8555 173.861 75.7566Z" fill="#EDD6B9"/>
<path d="M182.456 101.404C180.246 101.404 178.644 100.812 177.653 99.6242C176.66 98.4399 176.166 97.0652 176.166 95.5047C176.166 94.1072 176.475 92.97 177.093 92.0916C177.711 91.2148 178.515 90.5008 179.506 89.9466C180.497 89.394 181.546 88.9312 182.651 88.5567C183.756 88.1838 184.803 87.8169 185.796 87.4591C186.787 87.1029 187.592 86.6873 188.209 86.2154C188.826 85.7449 189.136 85.136 189.136 84.387V80.0483C189.136 79.5276 189.046 78.9583 188.868 78.3417C188.689 77.7237 188.357 77.1878 187.868 76.7326C187.381 76.2759 186.649 76.0491 185.674 76.0491C185.154 76.0491 184.657 76.1237 184.187 76.2698C183.715 76.416 183.301 76.6184 182.943 76.8788C184.08 77.3004 184.91 77.8942 185.429 78.6584C185.948 79.4211 186.21 80.2584 186.21 81.1687C186.21 82.4688 185.755 83.4934 184.845 84.2409C183.934 84.9899 182.861 85.3628 181.626 85.3628C180.326 85.3628 179.318 84.9564 178.603 84.1419C177.887 83.332 177.53 82.3227 177.53 81.12C177.53 80.1122 177.781 79.2582 178.286 78.5594C178.79 77.8607 179.545 77.2182 180.553 76.6337C181.529 76.081 182.698 75.6822 184.064 75.4386C185.429 75.1965 186.859 75.0732 188.354 75.0732C189.946 75.0732 191.426 75.2285 192.791 75.536C194.157 75.8466 195.326 76.5027 196.302 77.5105C196.984 78.226 197.422 79.1212 197.619 80.1929C197.813 81.2662 197.911 82.6469 197.911 84.3368V97.4031C197.911 98.2161 197.967 98.7672 198.081 99.0625C198.196 99.3548 198.398 99.5009 198.692 99.5009C198.952 99.5009 199.203 99.4202 199.447 99.2574C199.691 99.0945 199.927 98.9331 200.155 98.7687L200.642 99.5984C199.927 100.216 199.041 100.672 197.986 100.962C196.929 101.255 195.816 101.401 194.645 101.401C192.532 101.401 191.126 101.028 190.429 100.28C189.73 99.5314 189.348 98.6712 189.282 97.6954C188.632 98.7687 187.754 99.6547 186.65 100.353C185.543 101.054 184.146 101.404 182.456 101.404ZM187.332 97.5036C187.69 97.5036 188.007 97.4473 188.282 97.3331C188.558 97.2189 188.842 96.9997 189.136 96.6754V86.3874C188.81 86.9735 188.405 87.485 187.917 87.9234C187.43 88.3634 186.95 88.8338 186.478 89.3377C186.006 89.8416 185.616 90.4582 185.307 91.1904C184.998 91.9211 184.845 92.8559 184.845 93.9946C184.845 95.2931 185.079 96.2035 185.551 96.7242C186.023 97.2433 186.617 97.5036 187.332 97.5036Z" fill="#EDD6B9"/>
<path d="M225.129 75.7566V76.7811C224.511 77.0095 223.917 77.4571 223.349 78.1223C222.78 78.7891 222.22 79.9187 221.667 81.5111L215.085 101.063C214.305 100.997 213.516 100.965 212.72 100.965C211.924 100.965 211.136 100.997 210.356 101.063L201.872 79.5122C201.385 78.2761 200.879 77.5119 200.36 77.2196C199.84 76.9273 199.401 76.7811 199.043 76.7811V75.7566C200.344 75.854 201.692 75.9271 203.09 75.9758C204.487 76.026 206.031 76.0489 207.722 76.0489C208.73 76.0489 209.794 76.0169 210.916 75.953C212.038 75.8875 213.086 75.8236 214.061 75.7566V76.7811C213.477 76.7811 212.947 76.8055 212.477 76.8542C212.005 76.9029 211.664 77.0491 211.452 77.2927C211.241 77.5362 211.199 77.9838 211.33 78.6338L216.791 93.8452L216.158 94.821L218.887 86.678C219.993 83.3958 220.187 80.9493 219.472 79.3417C218.756 77.7326 217.683 76.8801 216.254 76.7811V75.7566C216.936 75.8221 217.814 75.8708 218.886 75.9027C219.959 75.9362 220.787 75.953 221.372 75.953C221.956 75.953 222.64 75.9362 223.419 75.9027C224.202 75.8708 224.771 75.8236 225.129 75.7566Z" fill="#EDD6B9"/>
<path d="M238.565 75.2207V96.5291C238.565 97.8931 238.768 98.8202 239.176 99.3089C239.582 99.7945 240.289 100.04 241.296 100.04V101.064C240.646 101.032 239.671 100.991 238.37 100.941C237.07 100.892 235.738 100.868 234.373 100.868C233.007 100.868 231.625 100.892 230.229 100.941C228.831 100.991 227.775 101.032 227.059 101.064V100.038C228.067 100.038 228.774 99.7945 229.18 99.3074C229.586 98.8187 229.789 97.8931 229.789 96.5276V81.0711C229.789 79.6081 229.594 78.5288 229.204 77.8285C228.815 77.1297 228.099 76.7811 227.059 76.7811V75.7566C228.099 75.854 229.107 75.9027 230.083 75.9027C231.707 75.9027 233.228 75.8479 234.642 75.7337C236.055 75.6195 237.363 75.449 238.565 75.2207ZM233.884 62.9353C235.574 62.9353 236.883 63.2839 237.809 63.9827C238.734 64.683 239.199 65.7303 239.199 67.1279C239.199 68.5269 238.736 69.5743 237.809 70.273C236.882 70.9733 235.574 71.3219 233.884 71.3219C232.194 71.3219 230.885 70.9733 229.959 70.273C229.032 69.5743 228.57 68.5269 228.57 67.1279C228.57 65.7303 229.032 64.683 229.959 63.9827C230.887 63.2839 232.194 62.9353 233.884 62.9353Z" fill="#EDD6B9"/>
<path d="M254.724 75.0745C257.584 75.0745 259.834 75.9118 261.477 77.5863C263.118 79.2594 263.938 82.0636 263.938 85.9958H248.678L248.581 85.0687H256.821C256.853 83.4779 256.788 82.0057 256.627 80.6569C256.464 79.3081 256.203 78.2273 255.847 77.4143C255.489 76.6014 255.001 76.1964 254.384 76.1964C253.506 76.1964 252.79 76.8861 252.239 78.2684C251.686 79.6491 251.329 82.0149 251.166 85.3625L251.361 85.7507C251.327 86.0765 251.312 86.4023 251.312 86.7266C251.312 87.0508 251.312 87.3933 251.312 87.7511C251.312 90.0255 251.597 91.7975 252.166 93.0656C252.734 94.3322 253.449 95.2106 254.311 95.6978C255.173 96.1865 256.042 96.43 256.92 96.43C257.57 96.43 258.447 96.2595 259.552 95.9185C260.658 95.576 261.746 94.6595 262.819 93.1631L263.648 93.4554C263.258 94.7555 262.631 96.0494 261.771 97.3328C260.909 98.6177 259.796 99.6742 258.43 100.502C257.065 101.33 255.407 101.746 253.457 101.746C251.376 101.746 249.484 101.324 247.777 100.478C246.071 99.6331 244.713 98.2355 243.706 96.2854C242.698 94.3353 242.195 91.7199 242.195 88.4362C242.195 85.3153 242.747 82.773 243.852 80.8061C244.958 78.8392 246.462 77.393 248.363 76.4659C250.262 75.5373 252.382 75.0745 254.724 75.0745Z" fill="#EDD6B9"/>
<path d="M282.607 75.0745C283.778 75.0745 284.687 75.3272 285.337 75.8295C285.987 76.3334 286.442 76.9683 286.702 77.7325C286.963 78.4967 287.092 79.2518 287.092 79.9993C287.092 81.4623 286.678 82.6253 285.848 83.4855C285.02 84.3471 283.938 84.7764 282.606 84.7764C281.175 84.7764 280.094 84.4522 279.363 83.8021C278.632 83.1521 278.265 82.3072 278.265 81.2674C278.265 80.1622 278.501 79.2518 278.972 78.5363C279.442 77.8223 280.036 77.2195 280.751 76.7338C280.167 76.7338 279.646 76.848 279.191 77.0748C278.67 77.3032 278.191 77.6366 277.752 78.075C277.314 78.5135 276.964 79.0189 276.703 79.5882C276.443 80.1561 276.314 80.7665 276.314 81.4166V96.0434C276.314 97.6038 276.638 98.6603 277.289 99.2129C277.94 99.7655 279.011 100.041 280.508 100.041V101.066C279.759 101.034 278.646 100.993 277.168 100.942C275.688 100.894 274.169 100.869 272.608 100.869C271.145 100.869 269.666 100.894 268.171 100.942C266.676 100.993 265.554 101.034 264.806 101.066V100.038C265.814 100.038 266.52 99.7944 266.927 99.3073C267.333 98.8186 267.536 97.893 267.536 96.5275V81.071C267.536 79.608 267.341 78.5287 266.951 77.8284C266.561 77.1296 265.846 76.781 264.806 76.781V75.7565C265.846 75.8539 266.854 75.9026 267.83 75.9026C269.454 75.9026 270.975 75.8478 272.389 75.7336C273.803 75.6195 275.111 75.449 276.314 75.2206V78.7327C276.735 77.8862 277.256 77.1966 277.874 76.6608C278.492 76.1249 279.198 75.726 279.995 75.4657C280.795 75.2039 281.663 75.0745 282.607 75.0745Z" fill="#EDD6B9"/>
</svg>
