<svg width="193" height="193" viewBox="0 0 193 193" fill="none" xmlns="http://www.w3.org/2000/svg">
<path d="M68.5397 131.297C66.3779 131.297 64.3921 131.017 62.64 130.465C60.8455 129.899 59.3487 129.035 58.1911 127.894C56.6907 126.419 55.7217 124.573 55.3157 122.403C54.9295 120.345 54.7328 117.638 54.7328 114.356V83.2747H47.4924V79.9119H54.7328V68.8678H55.4898C58.7748 68.8678 61.809 68.5442 64.5049 67.9067C67.1899 67.2693 69.8001 66.239 72.2596 64.848L73.3937 64.2061V79.9119H82.7291V83.2747H73.3937V121.378C73.3937 122.369 73.5633 123.096 73.8872 123.48C74.3988 124.092 75.7106 124.292 77.6694 123.456C78.5048 123.102 79.306 122.465 80.0494 121.563L80.524 120.989L83.0476 122.978L82.7191 123.532C81.3324 125.872 79.4675 127.77 77.1803 129.169C74.8815 130.582 71.9727 131.297 68.5397 131.297ZM49.0064 81.7879H56.2468V114.357C56.2468 117.548 56.4344 120.164 56.8044 122.134C57.1544 124.002 57.9809 125.585 59.2629 126.843C60.2473 127.815 61.5402 128.556 63.101 129.049C64.7052 129.553 66.534 129.81 68.5388 129.81C71.684 129.81 74.3212 129.17 76.3792 127.909C78.2766 126.748 79.8528 125.21 81.0735 123.33L80.7306 123.061C79.9646 123.863 79.14 124.455 78.2702 124.823C75.6195 125.958 73.6878 125.59 72.717 124.428C72.154 123.756 71.8788 122.759 71.8788 121.38V81.7888H81.2142V81.4014H71.8797V66.7506C69.6305 67.9058 67.2757 68.78 64.8595 69.3536C62.2574 69.9698 59.3622 70.304 56.2468 70.3501V81.4014H49.0064V81.7879Z" fill="#EDD6B9"/>
<path d="M86.398 130.076V126.908L86.8176 126.702C88.3938 125.932 89.8572 124.948 91.1717 123.777C92.5124 122.58 93.9777 121.046 95.5295 119.217L104.742 108.751L90.5257 87.7141C89.6506 86.3665 88.8593 85.315 88.1691 84.5773C87.5447 83.9115 86.8527 83.5117 86.0534 83.353L85.4453 83.2333V79.8767L86.2374 79.9139C87.6314 79.9795 89.6939 80.054 92.4204 80.1497C97.3926 80.3173 102.345 80.3554 107.03 80.1497C109.121 80.054 110.703 79.9795 111.782 79.9148L112.585 79.866V83.368H111.828C110.814 83.368 110.109 83.5666 109.789 83.9416C109.547 84.2271 109.648 84.721 110.088 85.4098L117.824 96.8556L118.768 95.7243C121.461 92.4927 122.562 89.5998 122.042 87.1289C121.544 84.7573 119.836 83.4957 116.82 83.2732L116.119 83.2217V79.8873L116.902 79.9139C118.867 79.9795 121.056 80.0398 123.47 80.101C125.874 80.163 127.901 80.1932 129.546 80.1932C132.057 80.1932 134.177 80.1001 135.845 79.9175L136.686 79.8253V83.0116L136.241 83.2102C134.921 83.7989 133.526 84.7325 132.098 85.9879C130.628 87.2787 129.101 88.8577 127.556 90.6841L119.695 99.6262L134.942 122.187C135.497 122.978 136.208 123.909 137.046 124.943C137.782 125.854 138.575 126.394 139.404 126.546L140.02 126.661V130.029L139.224 129.988C138.018 129.926 136.242 129.848 133.898 129.752C129.055 129.562 124.141 129.571 119.285 129.752C116.813 129.848 114.943 129.927 113.674 129.988L112.88 130.026V126.533H113.637C114.651 126.533 115.357 126.334 115.676 125.959C115.917 125.676 115.817 125.181 115.378 124.489L106.601 111.504L106.422 111.729C104.423 114.228 103.29 116.634 103.054 118.881C102.819 121.104 103.265 122.871 104.417 124.285C105.563 125.694 107.104 126.46 109.128 126.629L109.822 126.686V130.027L109.028 129.989C107.764 129.927 106.121 129.88 104.1 129.85L98.1442 129.754C96.2116 129.723 94.6769 129.709 93.5374 129.709C91.0301 129.709 88.9107 129.802 87.2389 129.985L86.398 130.076ZM93.5383 128.219C94.6841 128.219 96.2278 128.233 98.1703 128.265L104.124 128.36C105.765 128.385 107.161 128.421 108.309 128.467V128.03C106.203 127.714 104.499 126.768 103.235 125.214C101.842 123.505 101.275 121.323 101.55 118.728C101.816 116.198 103.055 113.533 105.232 110.81L105.721 110.199L105.612 110.038L96.6825 120.181C95.0973 122.052 93.5816 123.637 92.1894 124.88C90.8902 126.038 89.453 127.028 87.912 127.825V128.424C89.4873 128.288 91.3756 128.219 93.5383 128.219ZM114.396 127.986V128.464C115.611 128.409 117.223 128.343 119.229 128.265C124.122 128.083 129.075 128.073 133.96 128.265C135.842 128.342 137.358 128.407 138.508 128.461V127.846C137.55 127.521 136.661 126.858 135.862 125.868C135.004 124.809 134.274 123.851 133.69 123.021L108.817 86.2175C107.775 84.5871 108.141 83.564 108.629 82.9895C109.15 82.3742 109.953 82.0195 111.073 81.914V81.445C110.056 81.4991 108.733 81.5612 107.102 81.6365C102.37 81.8467 97.3863 81.8076 92.369 81.6365C90.1116 81.5576 88.3071 81.4929 86.9601 81.4353V82.0532C87.8235 82.3361 88.604 82.8441 89.2842 83.5702C90.0439 84.3832 90.8668 85.4737 91.7952 86.9028L116.653 123.684C117.69 125.318 117.326 126.34 116.84 126.912C116.328 127.517 115.507 127.877 114.396 127.986ZM118.701 98.1527L118.826 98.3397L126.404 89.7222C127.986 87.8506 129.566 86.2166 131.093 84.8779C132.479 83.6597 133.85 82.7146 135.175 82.063V81.4778C133.602 81.6126 131.715 81.6809 129.549 81.6809C127.892 81.6809 125.853 81.6507 123.434 81.5887C121.331 81.5346 119.399 81.4814 117.636 81.4255V81.8608C120.942 82.2899 122.923 83.9585 123.525 86.8284C124.145 89.7603 122.937 93.0708 119.941 96.6694L118.701 98.1527Z" fill="#EDD6B9"/>
<path d="M93.7583 190.112C42.0604 190.112 0.000213623 148.782 0.000213623 97.9806C0.000213623 92.3695 0.518095 86.7468 1.53942 81.2695L3.0281 81.5372C2.02302 86.9276 1.51416 92.4599 1.51416 97.9815C1.51416 147.962 42.895 188.625 93.7583 188.625V190.112Z" fill="#FF9582"/>
<path d="M1.40962 60.9772C2.292 58.8033 4.13616 57.3404 6.25189 56.9832L6.74721 58.8432C5.07087 59.1641 3.82399 60.0915 3.18972 61.6545C2.20538 64.0811 3.35663 66.6761 5.91626 67.678C8.47589 68.6807 11.1284 67.576 12.1119 65.1512C12.7462 63.5891 12.4935 62.0721 11.5011 60.705L13.163 59.6908C14.4541 61.3629 14.7744 63.6547 13.8775 65.864C12.563 69.2623 8.53814 71.0798 5.11418 69.6533C1.62976 68.3731 -0.0141056 64.3338 1.40962 60.9772Z" fill="#FF9582"/>
<path d="M11.3671 42.7722C13.3944 39.7534 17.7341 38.826 20.7602 40.9529C23.8774 42.9495 24.5748 47.2601 22.4483 50.2141C20.3993 53.264 16.092 54.1426 13.0669 52.0183C9.96319 50.0049 9.23058 45.7422 11.3671 42.7722ZM12.955 43.8157C11.4338 46.0038 12.0113 48.7336 14.2722 50.2505C16.5639 51.7887 19.3626 51.3268 20.8829 49.1387C22.3833 46.9826 21.8266 44.2191 19.5341 42.6818C17.292 41.1754 14.4536 41.6595 12.955 43.8157Z" fill="#FF9582"/>
<path d="M30.6914 21.8509L39.6397 31.3905L38.1068 32.7798L32.5861 26.8938L33.1581 32.8959L32.6375 33.3694L26.5682 32.3179L32.1025 38.2198L30.5651 39.6082L21.6168 30.0668L22.1554 29.5819L31.083 31.199L30.1708 22.3217L30.6914 21.8509Z" fill="#FF9582"/>
<path d="M39.059 16.1555L40.8616 15.1208L44.8287 21.8012C45.9394 23.6728 47.7267 24.0354 49.3751 23.0903C51.0072 22.1532 51.5467 20.4563 50.437 18.5847L46.4699 11.9052L48.2689 10.8723L52.1693 17.4348C53.8943 20.3419 52.9723 23.1985 50.3377 24.7092C47.6527 26.2492 44.6835 25.6233 42.9566 22.717L39.059 16.1555Z" fill="#FF9582"/>
<path d="M67.6675 3.4682L71.815 15.7908L71.142 16.0089L60.7979 10.0404L63.5632 18.2493L61.5819 18.8929L57.4335 6.57035L58.1255 6.34516L68.4389 12.2844L65.6871 4.11186L67.6675 3.4682Z" fill="#FF9582"/>
<path d="M77.2507 1.54631L79.3105 1.22626L81.3333 13.8299L79.2735 14.15L77.2507 1.54631Z" fill="#FF9582"/>
<path d="M95.0483 0.00182011C97.4284 0.0195517 99.4855 1.17565 100.596 2.98162L99.0109 4.11024C98.0988 2.69082 96.7662 1.89024 95.0547 1.87605C92.3994 1.85566 90.3585 3.85224 90.3369 6.55898C90.3152 9.26571 92.3272 11.2915 94.9825 11.3111C96.6949 11.3226 98.0383 10.5406 98.9749 9.13715L100.539 10.2879C99.4233 12.0779 97.368 13.2039 94.9491 13.1853C91.25 13.2154 88.0678 10.1948 88.1724 6.54213C88.1219 2.88853 91.3519 -0.0841783 95.0483 0.00182011Z" fill="#FF9582"/>
<path d="M115.137 13.377L109.418 12.1765L108.059 14.0694L105.884 13.6119L114.246 2.0899L114.94 2.2353L117.785 16.1094L115.589 15.6493L115.137 13.377ZM113.783 5.89157L110.522 10.6091L114.777 11.5027L113.783 5.89157Z" fill="#FF9582"/>
<path d="M134.34 8.46321C136.523 9.40033 137.949 11.2586 138.247 13.3483L136.338 13.7738C136.067 12.1159 135.162 10.8641 133.595 10.1894C131.158 9.14322 128.482 10.1894 127.379 12.6709C126.276 15.1507 127.313 17.7909 129.748 18.8371C131.317 19.5109 132.866 19.3105 134.289 18.3805L135.268 20.0455C133.524 21.2601 131.182 21.5013 128.965 20.5482C125.553 19.1447 123.834 15.1365 125.397 11.818C126.813 8.43839 130.976 6.95336 134.34 8.46321ZM125.896 21.3186C126.313 21.5412 126.647 21.7052 126.9 21.8125C127.675 22.1467 128.345 21.9916 128.66 21.2823C128.826 20.9099 128.854 20.4587 128.748 19.9267L129.688 19.8886C130.262 20.5775 130.432 21.4516 130.061 22.2859C129.524 23.4908 128.123 23.9855 126.536 23.3046C126.138 23.1335 125.73 22.895 125.326 22.5944L125.896 21.3186Z" fill="#FF9582"/>
<path d="M147.408 28.5319L142.639 25.2063L140.63 26.4148L138.816 25.1496L151.137 17.8229L151.715 18.2254L148.74 32.0703L146.91 30.7945L147.408 28.5319ZM149.179 21.1325L144.286 24.1965L147.833 26.671L149.179 21.1325ZM152.225 16.1144C152.04 15.7022 151.915 15.4726 151.722 15.3369C151.417 15.125 151.102 15.2616 150.864 15.5914L150.714 15.7979L149.366 14.8564C149.486 14.656 149.585 14.4876 149.664 14.3767C150.439 13.3049 151.671 13.0008 152.62 13.6622C153.004 13.9308 153.309 14.3103 153.525 14.8156L153.825 15.5C153.934 15.719 154.119 16.1322 154.328 16.2776C154.634 16.4895 154.937 16.3707 155.177 16.0391L155.346 15.8006L156.696 16.7421C156.575 16.9425 156.477 17.111 156.396 17.2218C155.611 18.3114 154.373 18.5871 153.458 17.9479C153.09 17.6908 152.778 17.2856 152.532 16.7563L152.225 16.1144Z" fill="#FF9582"/>
<path d="M167.04 31.533C169.577 34.1537 169.522 38.5175 166.731 40.9361C164.05 43.4717 159.621 43.1702 157.171 40.4715C154.607 37.8242 154.702 33.503 157.49 31.0826C160.184 28.5629 164.576 28.8218 167.04 31.533ZM165.649 32.8203C163.823 30.8707 160.983 30.8122 158.972 32.6341C156.931 34.4826 156.76 37.2656 158.586 39.2143C160.387 41.1338 163.252 41.2224 165.293 39.3739C167.29 37.5653 167.448 34.7389 165.649 32.8203Z" fill="#FF9582"/>
<path d="M182.71 54.0036L186.25 61.6459L184.546 62.4057L181.873 56.6305L178.842 57.9844L180.857 62.3348L179.209 63.0716L177.195 58.7229L173.45 60.3967L176.222 66.3838L174.521 67.1454L170.884 59.2921L182.71 54.0036Z" fill="#FF9582"/>
<path d="M192.9 87.3701C193.172 89.693 192.254 91.8412 190.564 93.14L189.231 91.7348C190.553 90.6709 191.202 89.2736 191.007 87.6042C190.702 85.0092 188.438 83.2626 185.702 83.5711C182.966 83.8788 181.164 86.0873 181.466 88.6796C181.663 90.3508 182.615 91.5681 184.147 92.3093L183.174 93.9761C181.232 93.1054 179.846 91.2392 179.568 88.8764C179.087 85.2716 181.752 81.7989 185.454 81.4593C189.141 80.9637 192.536 83.752 192.9 87.3701Z" fill="#FF9582"/>
<path d="M192.953 108.034C192.631 111.638 189.261 114.486 185.567 114.031C181.856 113.731 179.153 110.264 179.593 106.669C179.919 103.025 183.282 100.235 186.975 100.69C190.687 101.011 193.395 104.42 192.953 108.034ZM191.051 107.857C191.33 105.221 189.497 103.088 186.771 102.81C184.01 102.528 181.769 104.245 181.491 106.883C181.216 109.482 183.045 111.653 185.809 111.935C188.512 112.21 190.775 110.457 191.051 107.857Z" fill="#FF9582"/>
<path d="M186.504 133.799L173.96 129.716L174.183 129.055L185.235 124.458L176.88 121.738L177.537 119.791L190.078 123.874L189.85 124.554L178.842 129.146L187.159 131.854L186.504 133.799Z" fill="#FF9582"/>
<path d="M179.13 144.564L181.292 140.83L182.917 141.74L177.556 151.003L175.929 150.096L178.1 146.345L168.431 140.943L169.464 139.16L179.13 144.564Z" fill="#FF9582"/>
<path d="M172.513 157.886L167.011 164.313L165.581 163.129L169.737 158.272L167.191 156.167L164.06 159.825L162.673 158.68L165.805 155.022L162.654 152.418L158.346 157.456L156.915 156.271L162.565 149.666L172.513 157.886Z" fill="#FF9582"/>
<path d="M160.393 170.775L158.77 172.062L153.824 166.037C152.442 164.35 150.616 164.254 149.13 165.433C147.659 166.599 147.385 168.359 148.767 170.045L153.713 176.069L152.086 177.356L147.228 171.437C145.079 168.817 145.557 165.854 147.931 163.972C150.355 162.053 153.385 162.235 155.534 164.855L160.393 170.775ZM158.745 178.292L156.785 179.846L156.549 179.559L156.464 175.478L157.657 174.532L158.745 178.292Z" fill="#FF9582"/>
<path d="M143.679 182.706L140.05 184.53C136.261 186.436 132.553 185.39 130.805 182.031C129.081 178.724 130.355 175.06 134.126 173.163L137.753 171.338L143.679 182.706ZM134.995 174.79C132.312 176.142 131.474 178.693 132.713 181.07C133.97 183.481 136.505 184.227 139.205 182.869L140.959 181.989L136.749 173.909L134.995 174.79Z" fill="#FF9582"/>
<path d="M119.064 192.761C115.52 193.735 111.624 191.641 110.756 188.086C109.738 184.569 112.085 180.866 115.659 180.004C119.243 179.021 123.08 181.13 123.95 184.685C124.948 188.207 122.658 191.896 119.064 192.761ZM118.56 190.953C121.169 190.28 122.553 187.845 121.858 185.246C121.155 182.607 118.733 181.152 116.125 181.824C113.555 182.487 112.132 184.932 112.838 187.57C113.525 190.15 115.991 191.615 118.56 190.953Z" fill="#FF9582"/>
</svg>
