<svg width="152" height="152" viewBox="0 0 152 152" fill="none" xmlns="http://www.w3.org/2000/svg">
<path d="M53.9801 103.405C52.2776 103.405 50.7137 103.184 49.3337 102.749C47.9204 102.304 46.7416 101.623 45.8299 100.725C44.6483 99.5633 43.8851 98.1089 43.5654 96.4003C43.2612 94.7797 43.1063 92.6473 43.1063 90.0631V65.5842H37.4041V62.9357H43.1063V54.2378H43.7025C46.2897 54.2378 48.6793 53.9829 50.8025 53.4809C52.9171 52.9788 54.9728 52.1675 56.9098 51.0719L57.803 50.5664V62.9357H65.1552V65.5842H57.803V95.5931C57.803 96.3738 57.9366 96.9463 58.1917 97.2487C58.5945 97.7304 59.6277 97.8883 61.1703 97.2298C61.8283 96.9505 62.4593 96.4492 63.0448 95.7391L63.4186 95.2866L65.406 96.8535L65.1474 97.2892C64.0552 99.1325 62.5865 100.627 60.7852 101.729C58.9747 102.842 56.6838 103.405 53.9801 103.405ZM38.5964 64.4132H44.2987V90.0638C44.2987 92.5767 44.4465 94.6365 44.7378 96.1887C45.0135 97.6592 45.6644 98.9063 46.6741 99.8971C47.4493 100.662 48.4676 101.246 49.6968 101.634C50.9602 102.032 52.4005 102.234 53.9794 102.234C56.4565 102.234 58.5334 101.73 60.1542 100.736C61.6486 99.8224 62.8899 98.6109 63.8513 97.1307L63.5813 96.9184C62.978 97.5503 62.3286 98.016 61.6436 98.3065C59.5559 99.2002 58.0346 98.9105 57.2701 97.9951C56.8267 97.4658 56.6099 96.6803 56.6099 95.5945V64.4139H63.9622V64.1088H56.6106V52.5704C54.8392 53.4802 52.9846 54.1686 51.0817 54.6204C49.0325 55.1057 46.7523 55.3689 44.2987 55.4052V64.1088H38.5964V64.4132Z" fill="#22496B"/>
<path d="M68.0441 102.443V99.9484L68.3745 99.7864C69.6159 99.1797 70.7684 98.4046 71.8037 97.4822C72.8596 96.5396 74.0136 95.3317 75.2358 93.8912L82.4913 85.6485L71.295 69.0806C70.6057 68.0193 69.9825 67.1912 69.439 66.6102C68.9473 66.0859 68.4022 65.771 67.7727 65.646L67.2938 65.5517V62.9082L67.9176 62.9375C69.0155 62.9892 70.6398 63.0478 72.7872 63.1232C76.7031 63.2552 80.6034 63.2852 84.2933 63.1232C85.9397 63.0478 87.1861 62.9892 88.0359 62.9382L88.6683 62.8998V65.6578H88.0721C87.2735 65.6578 86.7178 65.8142 86.4663 66.1096C86.2751 66.3344 86.3547 66.7234 86.7014 67.2659L92.7938 76.2802L93.5378 75.3892C95.6581 72.8441 96.5257 70.5658 96.1157 68.6198C95.7235 66.752 94.3784 65.7584 92.0037 65.5831L91.4516 65.5426V62.9165L92.0676 62.9375C93.6153 62.9892 95.3398 63.0366 97.2406 63.0848C99.1342 63.1337 100.73 63.1574 102.026 63.1574C104.004 63.1574 105.674 63.0841 106.987 62.9403L107.649 62.8677V65.3771L107.299 65.5336C106.259 65.9972 105.161 66.7324 104.036 67.7211C102.878 68.7378 101.675 69.9813 100.459 71.4197L94.2675 78.4622L106.275 96.2303C106.713 96.8531 107.273 97.5863 107.932 98.4011C108.512 99.1182 109.137 99.5434 109.79 99.6635L110.275 99.7536V102.406L109.648 102.374C108.698 102.325 107.299 102.264 105.453 102.188C101.64 102.039 97.7692 102.046 93.945 102.188C91.998 102.264 90.525 102.326 89.5259 102.374L88.9007 102.404V99.6531H89.4968C90.2955 99.6531 90.8512 99.4967 91.1027 99.2013C91.2924 98.9779 91.2135 98.5883 90.8675 98.0436L83.9551 87.8165L83.8144 87.9939C82.2398 89.9622 81.348 91.8572 81.1619 93.6266C80.9764 95.377 81.3281 96.7693 82.2355 97.8823C83.138 98.9925 84.3516 99.5958 85.9454 99.7285L86.4918 99.7739V102.405L85.8665 102.375C84.871 102.326 83.5771 102.289 81.9854 102.265L77.295 102.19C75.7729 102.165 74.5643 102.154 73.6668 102.154C71.6922 102.154 70.023 102.227 68.7064 102.372L68.0441 102.443ZM73.6675 100.981C74.57 100.981 75.7857 100.992 77.3156 101.017L82.0046 101.092C83.2971 101.112 84.3964 101.14 85.3002 101.176V100.832C83.6418 100.583 82.2995 99.8381 81.3047 98.6141C80.2076 97.2686 79.7606 95.5495 79.9774 93.5058C80.187 91.5137 81.1626 89.4148 82.8772 87.2698L83.2623 86.7887L83.1763 86.6623L76.1439 94.6502C74.8954 96.1242 73.7016 97.3719 72.6052 98.3509C71.582 99.2635 70.4501 100.043 69.2365 100.67V101.142C70.4771 101.035 71.9643 100.981 73.6675 100.981ZM90.0944 100.797V101.174C91.0515 101.131 92.3206 101.078 93.9009 101.017C97.7543 100.874 101.655 100.866 105.502 101.017C106.985 101.077 108.178 101.129 109.084 101.172V100.687C108.33 100.431 107.63 99.9086 107 99.1294C106.324 98.295 105.75 97.5409 105.29 96.8873L85.7003 67.902C84.8803 66.6179 85.1681 65.8122 85.5525 65.3597C85.9632 64.8751 86.5956 64.5958 87.4774 64.5127V64.1434C86.6766 64.1859 85.6342 64.2348 84.3495 64.2942C80.6233 64.4597 76.6981 64.4289 72.7466 64.2942C70.9688 64.232 69.5477 64.1811 68.4868 64.1357V64.6224C69.1668 64.8451 69.7815 65.2452 70.3172 65.817C70.9155 66.4573 71.5636 67.3162 72.2947 68.4417L91.8715 97.4096C92.6887 98.6965 92.4023 99.5009 92.0193 99.9519C91.6157 100.428 90.9691 100.712 90.0944 100.797ZM93.4845 77.3017L93.5833 77.449L99.5513 70.6621C100.798 69.1881 102.042 67.9013 103.244 66.8469C104.336 65.8876 105.416 65.1432 106.459 64.63V64.1692C105.22 64.2753 103.734 64.3291 102.028 64.3291C100.723 64.3291 99.1172 64.3054 97.2121 64.2565C95.5565 64.2139 94.0345 64.172 92.646 64.128V64.4708C95.2496 64.8088 96.81 66.1229 97.2839 68.3831C97.7721 70.6922 96.8213 73.2994 94.4615 76.1335L93.4845 77.3017Z" fill="#22496B"/>
<path d="M73.8408 149.725C33.1254 149.725 0.000244141 117.175 0.000244141 77.166C0.000244141 72.7469 0.40811 68.3186 1.21247 64.0049L2.3849 64.2158C1.59333 68.4611 1.19257 72.8181 1.19257 77.1667C1.19257 116.529 33.7827 148.554 73.8408 148.554V149.725Z" fill="#22496B"/>
<path d="M1.11015 48.0237C1.80509 46.3117 3.25748 45.1596 4.92376 44.8782L5.31386 46.3431C3.99363 46.5958 3.01163 47.3262 2.5121 48.5572C1.73687 50.4683 2.64356 52.512 4.65943 53.301C6.67531 54.0908 8.76437 53.2207 9.53889 51.3111C10.0384 50.0808 9.83945 48.8861 9.05783 47.8094L10.3667 47.0106C11.3835 48.3275 11.6358 50.1324 10.9295 51.8724C9.89417 54.5488 6.72433 55.9802 4.02774 54.8567C1.28353 53.8485 -0.0111179 50.6673 1.11015 48.0237Z" fill="#22496B"/>
<path d="M8.95229 33.6859C10.5489 31.3084 13.9668 30.578 16.35 32.2531C18.805 33.8255 19.3543 37.2204 17.6795 39.5469C16.0658 41.9489 12.6735 42.6408 10.291 40.9678C7.84665 39.3821 7.26967 36.025 8.95229 33.6859ZM10.2029 34.5077C9.00487 36.231 9.45964 38.3809 11.2403 39.5755C13.0452 40.787 15.2493 40.4232 16.4466 38.6999C17.6283 37.0018 17.1899 34.8254 15.3843 33.6147C13.6186 32.4284 11.3831 32.8096 10.2029 34.5077Z" fill="#22496B"/>
<path d="M24.1715 17.209L31.2189 24.722L30.0116 25.8162L25.6637 21.1806L26.1142 25.9077L25.7042 26.2805L20.9242 25.4524L25.2828 30.1006L24.072 31.194L17.0246 23.6796L17.4488 23.2976L24.4799 24.5712L23.7615 17.5797L24.1715 17.209Z" fill="#22496B"/>
<path d="M30.7615 12.7236L32.1812 11.9087L35.3055 17.17C36.1802 18.6439 37.5879 18.9295 38.8861 18.1852C40.1715 17.4472 40.5964 16.1107 39.7224 14.6367L36.5981 9.37619L38.0149 8.56274L41.0867 13.7311C42.4453 16.0207 41.7191 18.2704 39.6443 19.4602C37.5296 20.673 35.1911 20.1801 33.8311 17.8912L30.7615 12.7236Z" fill="#22496B"/>
<path d="M53.2932 2.73169L56.5596 12.4365L56.0296 12.6083L47.8829 7.90774L50.0608 14.3728L48.5004 14.8797L45.2332 5.17483L45.7782 4.99748L53.9007 9.67499L51.7335 3.23861L53.2932 2.73169Z" fill="#22496B"/>
<path d="M60.8405 1.21789L62.4627 0.96582L64.0558 10.892L62.4336 11.1441L60.8405 1.21789Z" fill="#22496B"/>
<path d="M74.8567 0.00143345C76.7312 0.0153983 78.3513 0.925903 79.226 2.34822L77.9775 3.23708C77.2591 2.1192 76.2096 1.48869 74.8617 1.47751C72.7705 1.46145 71.1632 3.03389 71.1461 5.16562C71.1291 7.29735 72.7137 8.89283 74.8048 8.90819C76.1535 8.91727 77.2115 8.30142 77.9491 7.1961L79.1812 8.10242C78.3023 9.51217 76.6836 10.3989 74.7786 10.3843C71.8652 10.408 69.3591 8.0291 69.4415 5.15235C69.4017 2.2749 71.9455 -0.0662959 74.8567 0.00143345Z" fill="#22496B"/>
<path d="M90.6772 10.5353L86.1729 9.58988L85.1028 11.0806L83.3896 10.7203L89.9758 1.646L90.5222 1.76051L92.7627 12.6873L91.0331 12.3249L90.6772 10.5353ZM89.6106 4.64005L87.0426 8.35539L90.3936 9.05921L89.6106 4.64005Z" fill="#22496B"/>
<path d="M105.801 6.66524C107.52 7.40328 108.643 8.86679 108.878 10.5125L107.374 10.8477C107.161 9.54199 106.448 8.55607 105.214 8.02471C103.295 7.20079 101.187 8.02471 100.319 9.97908C99.4498 11.9321 100.266 14.0114 102.184 14.8353C103.42 15.366 104.64 15.2082 105.76 14.4758L106.531 15.787C105.159 16.7436 103.314 16.9336 101.567 16.183C98.8806 15.0776 97.5263 11.9209 98.7577 9.30738C99.8726 6.64569 103.151 5.47613 105.801 6.66524ZM99.1507 16.7897C99.479 16.965 99.7419 17.0942 99.9415 17.1786C100.552 17.4419 101.079 17.3197 101.327 16.7611C101.459 16.4678 101.481 16.1124 101.397 15.6935L102.137 15.6635C102.589 16.206 102.723 16.8945 102.431 17.5515C102.008 18.5004 100.904 18.89 99.6545 18.3538C99.3411 18.219 99.0199 18.0312 98.7016 17.7945L99.1507 16.7897Z" fill="#22496B"/>
<path d="M116.093 22.4707L112.338 19.8516L110.755 20.8033L109.326 19.8069L119.03 14.0367L119.485 14.3537L117.143 25.2574L115.701 24.2526L116.093 22.4707ZM117.488 16.6432L113.635 19.0563L116.428 21.0051L117.488 16.6432ZM119.887 12.6912C119.741 12.3665 119.643 12.1856 119.491 12.0788C119.251 11.9119 119.003 12.0195 118.815 12.2792L118.697 12.4419L117.635 11.7004C117.73 11.5426 117.808 11.4099 117.87 11.3226C118.481 10.4784 119.451 10.2389 120.198 10.7598C120.501 10.9714 120.741 11.2702 120.911 11.6682L121.147 12.2073C121.233 12.3797 121.379 12.7051 121.543 12.8196C121.784 12.9865 122.023 12.8929 122.212 12.6318L122.345 12.444L123.408 13.1855C123.313 13.3433 123.236 13.476 123.172 13.5633C122.554 14.4214 121.579 14.6386 120.858 14.1351C120.568 13.9326 120.322 13.6135 120.129 13.1967L119.887 12.6912Z" fill="#22496B"/>
<path d="M131.555 24.8343C133.553 26.8983 133.509 30.335 131.312 32.2398C129.2 34.2368 125.712 33.9994 123.782 31.8739C121.763 29.789 121.838 26.3858 124.034 24.4796C126.156 22.4952 129.614 22.6991 131.555 24.8343ZM130.46 25.8481C129.021 24.3127 126.784 24.2666 125.201 25.7015C123.593 27.1573 123.458 29.3491 124.897 30.8838C126.315 32.3955 128.572 32.4653 130.179 31.0095C131.752 29.5851 131.876 27.3591 130.46 25.8481Z" fill="#22496B"/>
<path d="M143.897 42.5312L146.684 48.5501L145.343 49.1485L143.238 44.6001L140.85 45.6664L142.437 49.0926L141.139 49.6729L139.553 46.248L136.604 47.5663L138.787 52.2815L137.447 52.8813L134.583 46.6963L143.897 42.5312Z" fill="#22496B"/>
<path d="M151.92 68.8096C152.135 70.639 151.411 72.3308 150.081 73.3537L149.031 72.247C150.072 71.4091 150.583 70.3087 150.429 68.9939C150.189 66.9502 148.406 65.5746 146.251 65.8176C144.097 66.0599 142.678 67.7992 142.916 69.8409C143.071 71.1571 143.82 72.1158 145.027 72.6995L144.261 74.0122C142.731 73.3265 141.64 71.8567 141.421 69.9959C141.042 67.1569 143.14 64.4218 146.057 64.1544C148.96 63.7641 151.634 65.9601 151.92 68.8096Z" fill="#22496B"/>
<path d="M151.963 85.0836C151.71 87.9226 149.056 90.1654 146.146 89.8072C143.223 89.5705 141.095 86.8403 141.441 84.009C141.698 81.1392 144.347 78.9419 147.255 79.3C150.178 79.5528 152.311 82.2375 151.963 85.0836ZM150.465 84.9446C150.685 82.8681 149.241 81.1888 147.095 80.9695C144.92 80.7475 143.155 82.1 142.936 84.1773C142.72 86.2245 144.16 87.9338 146.336 88.1558C148.465 88.373 150.248 86.9919 150.465 84.9446Z" fill="#22496B"/>
<path d="M146.884 105.376L137.005 102.161L137.181 101.64L145.885 98.0193L139.305 95.8771L139.822 94.3438L149.699 97.5592L149.52 98.0947L140.85 101.711L147.4 103.844L146.884 105.376Z" fill="#22496B"/>
<path d="M141.077 113.854L142.779 110.913L144.059 111.629L139.837 118.925L138.556 118.21L140.265 115.256L132.651 111.002L133.464 109.598L141.077 113.854Z" fill="#22496B"/>
<path d="M135.865 124.345L131.532 129.407L130.406 128.475L133.679 124.65L131.674 122.991L129.208 125.872L128.116 124.971L130.582 122.09L128.101 120.039L124.708 124.007L123.581 123.074L128.03 117.872L135.865 124.345Z" fill="#22496B"/>
<path d="M126.32 134.496L125.041 135.51L121.146 130.765C120.058 129.436 118.62 129.361 117.45 130.289C116.291 131.208 116.075 132.594 117.163 133.922L121.059 138.666L119.778 139.679L115.951 135.018C114.259 132.954 114.635 130.621 116.505 129.139C118.414 127.627 120.801 127.77 122.493 129.834L126.32 134.496ZM125.022 140.417L123.478 141.64L123.293 141.415L123.225 138.201L124.165 137.455L125.022 140.417Z" fill="#22496B"/>
<path d="M113.157 143.893L110.299 145.329C107.315 146.831 104.395 146.007 103.018 143.361C101.66 140.757 102.664 137.871 105.633 136.377L108.49 134.94L113.157 143.893ZM106.318 137.659C104.205 138.723 103.545 140.732 104.521 142.604C105.511 144.503 107.507 145.091 109.634 144.021L111.015 143.328L107.699 136.965L106.318 137.659Z" fill="#22496B"/>
<path d="M93.7707 151.812C90.9796 152.579 87.9114 150.93 87.2278 148.13C86.4256 145.36 88.2745 142.444 91.089 141.765C93.9114 140.991 96.9334 142.652 97.6184 145.452C98.405 148.225 96.6009 151.131 93.7707 151.812ZM93.3735 150.388C95.4284 149.858 96.5185 147.94 95.9713 145.893C95.4171 143.815 93.5099 142.669 91.4557 143.199C89.432 143.72 88.3114 145.646 88.8671 147.724C89.4085 149.756 91.3505 150.909 93.3735 150.388Z" fill="#22496B"/>
</svg>
